HIERARCHY
ROOT Hips
{
	OFFSET 0.000000 0.000000 0.000000
	CHANNELS 6 Xposition Yposition Zposition Xrotation Yrotation Zrotation
	JOINT LeftUpLeg_virtual
	{
		OFFSET 0.000000 0.000000 0.000000
		CHANNELS 3 Xrotation Yrotation Zrotation
		JOINT LeftUpLeg
		{
			OFFSET 10.205400 -3.823500 0.155100
			CHANNELS 3 Xrotation Yrotation Zrotation
			JOINT LeftLeg
			{
				OFFSET 0.708757 -12.982077 0.567790
				CHANNELS 3 Xrotation Yrotation Zrotation
				JOINT LeftFoot
				{
					OFFSET -0.708756 -10.717838 -2.184338
					CHANNELS 3 Xrotation Yrotation Zrotation
					JOINT LeftToeBase
					{
						OFFSET 0.108149 -7.191104 7.560241
						CHANNELS 3 Xrotation Yrotation Zrotation
						JOINT LeftToe_End
						{
							OFFSET 0.070230 0.081724 4.490308
							CHANNELS 3 Xrotation Yrotation Zrotation
							End Site
							{
								OFFSET 0 0 0
							}
						}
					}
				}
			}
		}
	}
	JOINT RightUpLeg_virtual
	{
		OFFSET 0.000000 0.000000 0.000000
		CHANNELS 3 Xrotation Yrotation Zrotation
		JOINT RightUpLeg
		{
			OFFSET -10.205400 -3.823500 0.005500
			CHANNELS 3 Xrotation Yrotation Zrotation
			JOINT RightLeg
			{
				OFFSET -0.708756 -12.982134 0.610632
				CHANNELS 3 Xrotation Yrotation Zrotation
				JOINT RightFoot
				{
					OFFSET 0.708754 -10.717769 -1.945823
					CHANNELS 3 Xrotation Yrotation Zrotation
					JOINT RightToeBase
					{
						OFFSET -0.108140 -7.191069 7.372968
						CHANNELS 3 Xrotation Yrotation Zrotation
						JOINT RightToe_End
						{
							OFFSET -0.070227 0.081735 4.479403
							CHANNELS 3 Xrotation Yrotation Zrotation
							End Site
							{
								OFFSET 0 0 0
							}
						}
					}
				}
			}
		}
	}
	JOINT Spine_virtual
	{
		OFFSET 0.000000 0.000000 0.000000
		CHANNELS 3 Xrotation Yrotation Zrotation
		JOINT Spine
		{
			OFFSET 0.000000 6.876099 0.125700
			CHANNELS 3 Xrotation Yrotation Zrotation
			JOINT Spine1
			{
				OFFSET 0.000000 5.730043 0.104720
				CHANNELS 3 Xrotation Yrotation Zrotation
				JOINT Spine1_split
				{
					OFFSET 0.000000 5.730043 0.104720
					CHANNELS 3 Xrotation Yrotation Zrotation
					JOINT Spine2
					{
						OFFSET 0.000000 5.730043 0.104720
						CHANNELS 3 Xrotation Yrotation Zrotation
						JOINT Neck_virtual
						{
							OFFSET 0.000000 0.000000 0.000000
							CHANNELS 3 Xrotation Yrotation Zrotation
							JOINT Neck
							{
								OFFSET 0.000000 10.314075 0.188496
								CHANNELS 3 Xrotation Yrotation Zrotation
								JOINT Head
								{
									OFFSET 0.000000 7.643700 -2.377400
									CHANNELS 3 Xrotation Yrotation Zrotation
									JOINT HeadTop_End
									{
										OFFSET 0.000000 43.788605 -13.619600
										CHANNELS 3 Xrotation Yrotation Zrotation
										End Site
										{
											OFFSET 0 0 0
										}
									}
								}
							}
						}
						JOINT LeftShoulder_virtual
						{
							OFFSET 0.000000 0.000000 0.000000
							CHANNELS 3 Xrotation Yrotation Zrotation
							JOINT LeftShoulder
							{
								OFFSET 2.196100 4.412489 0.087492
								CHANNELS 3 Xrotation Yrotation Zrotation
								JOINT LeftShoulder_split
								{
									OFFSET 2.196100 4.412489 0.087492
									CHANNELS 3 Xrotation Yrotation Zrotation
									JOINT LeftArm
									{
										OFFSET 8.771219 -2.981674 -0.026999
										CHANNELS 3 Xrotation Yrotation Zrotation
										JOINT LeftForeArm
										{
											OFFSET 8.512804 0.000000 -0.000000
											CHANNELS 3 Xrotation Yrotation Zrotation
											JOINT LeftHand
											{
												OFFSET 18.484802 0.000000 -0.000000
												CHANNELS 3 Xrotation Yrotation Zrotation
												End Site
												{
													OFFSET 0 0 0
												}
											}
										}
									}
								}
							}
						}
						JOINT RightShoulder_virtual
						{
							OFFSET 0.000000 0.000000 0.000000
							CHANNELS 3 Xrotation Yrotation Zrotation
							JOINT RightShoulder
							{
								OFFSET -2.196100 4.412496 0.070690
								CHANNELS 3 Xrotation Yrotation Zrotation
								JOINT RightShoulder_split
								{
									OFFSET -2.196100 4.412496 0.070690
									CHANNELS 3 Xrotation Yrotation Zrotation
									JOINT RightArm
									{
										OFFSET -8.771282 -2.981682 -0.094208
										CHANNELS 3 Xrotation Yrotation Zrotation
										JOINT RightForeArm
										{
											OFFSET -8.494598 0.000000 0.000000
											CHANNELS 3 Xrotation Yrotation Zrotation
											JOINT RightHand
											{
												OFFSET -18.483803 0.000000 0.000001
												CHANNELS 3 Xrotation Yrotation Zrotation
												End Site
												{
													OFFSET 0 0 0
												}
											}
										}
									}
								}
							}
						}
					}
				}
			}
		}
	}
}
MOTION
Frames: 7
Frame Time: 0.03333333
1.086052 33.883533 -1.272984 0.000000 0.000000 0.000000 -0.287258 -14.988198 -0.139852 -16.472849 20.328714 18.413905 27.883204 11.699738 -1.140751 -1.123114 -0.242263 -8.360788 -3.949661 0.442133 0.334610 0.000000 0.000000 0.000000 0.443049 -14.413495 -0.541013 0.757242 -2.477125 2.936451 22.754077 5.050598 6.042281 -17.696018 -0.733081 -3.924727 2.133619 -1.121429 3.168790 0.000000 0.000000 0.000000 -1.010191 -17.801092 -1.473339 3.396962 -0.953087 0.065379 0.451528 -0.353833 3.217243 -0.177245 1.965592 -0.170574 0.000000 0.000000 0.000000 0.602861 -1.682729 2.763847 4.376409 -7.033606 -2.280794 5.511797 20.934229 -9.321420 0.000000 0.000000 0.000000 0.036870 -1.352008 2.948569 4.583441 6.839152 2.713140 5.415509 7.260536 -3.264404 -6.072924 -40.602049 -68.012777 -12.901380 -26.627894 -2.867646 0.000000 0.000000 0.000000 0.307616 -1.009139 3.400596 -1.628599 -1.618142 3.042871 -1.498045 4.098647 1.000029 7.137721 8.256188 77.678628 -6.167804 27.884375 5.360390 0.000000 0.000000 0.000000 
1.237608 33.582813 -1.436796 0.000000 0.000000 0.000000 -0.068760 -14.793558 -0.465810 -16.798543 20.748250 19.164927 28.162595 11.146088 -1.804201 -2.307172 -0.229921 -7.345726 -2.403673 0.411765 -0.140396 0.000000 0.000000 0.000000 0.606573 -14.962376 -0.723336 -0.624457 -2.610999 2.813289 20.396205 5.181174 6.764298 -15.546100 0.186779 -2.389854 -1.424443 -1.268835 2.722811 0.000000 0.000000 0.000000 -1.017701 -18.789697 -1.904654 4.304915 -1.173470 0.125372 0.838830 -0.551732 3.183268 0.599975 1.446106 0.029834 0.000000 0.000000 0.000000 1.210428 -1.667570 2.756811 3.439386 -6.611284 -1.954451 4.415361 20.935653 -9.265722 0.000000 0.000000 0.000000 0.410075 -1.342884 2.878522 4.833029 6.794879 3.276335 5.782107 6.233366 -1.193715 -4.166225 -40.639581 -68.313804 -10.964949 -25.355189 -2.555180 0.000000 0.000000 0.000000 0.698615 -1.063010 3.382970 -1.423954 -1.108096 2.871162 -1.452976 6.031592 0.044630 6.299958 9.271579 76.723085 -4.784536 26.226569 4.342917 0.000000 0.000000 0.000000 
1.393102 33.253109 -1.521690 0.000000 0.000000 0.000000 -0.067118 -15.891441 -1.537322 -19.076660 22.710792 22.231289 29.633418 9.315141 -2.800562 -3.299445 -0.197807 -8.710951 -1.285040 0.461787 -1.092566 0.000000 0.000000 0.000000 0.390002 -17.014321 -1.726662 -2.623587 -3.643097 2.536985 18.258716 5.870660 7.945621 -11.530302 2.326135 0.460030 -3.790126 -0.965626 1.343941 0.000000 0.000000 0.000000 -1.127227 -20.769782 -2.761861 5.777173 -1.584140 0.324124 1.458159 -0.855514 2.844515 0.775754 1.221615 -0.088677 0.000000 0.000000 0.000000 2.033351 -1.750517 2.494121 1.973982 -5.800556 -1.928614 1.775234 22.144283 -9.385810 0.000000 0.000000 0.000000 1.190253 -1.404151 2.377674 5.534797 6.234575 4.302624 5.778044 6.013874 1.316420 1.374269 -42.182350 -66.498927 -11.734740 -30.006462 -4.289748 0.000000 0.000000 0.000000 1.636637 -1.190606 2.999757 -1.062098 -0.434172 2.515386 -0.867238 6.539078 -0.963906 4.141980 12.092058 75.353420 -2.845833 25.072595 3.295047 0.000000 0.000000 0.000000 
1.543128 33.023403 -1.540228 0.000000 0.000000 0.000000 -0.193388 -18.428378 -3.017029 -22.825918 26.121102 27.216205 31.374693 6.845583 -3.939382 -3.687914 -0.069546 -11.635049 -2.694226 0.526206 -1.315570 0.000000 0.000000 0.000000 0.119099 -20.181186 -3.315539 -4.754455 -5.284807 2.012717 16.935225 6.748556 9.098515 -7.553479 5.158473 3.888825 -4.401123 -0.312007 -0.462639 0.000000 0.000000 0.000000 -1.047275 -23.437082 -3.884659 7.390279 -2.116664 0.598609 2.219831 -1.216567 2.302419 0.546263 1.151998 -0.332287 0.000000 0.000000 0.000000 3.008519 -1.944930 2.058469 0.291220 -4.616043 -2.126841 -1.766871 24.200899 -9.485453 0.000000 0.000000 0.000000 2.163405 -1.552944 1.611158 6.580740 5.711733 6.073920 5.489601 5.636589 3.205043 10.851090 -44.270721 -62.486272 -16.292141 -41.376562 -9.216299 0.000000 0.000000 0.000000 2.891681 -1.403046 2.385243 -0.602638 0.212231 2.143304 -0.017773 5.385930 -1.866722 1.135254 15.446437 73.843600 -0.921525 25.908192 2.530344 0.000000 0.000000 0.000000 
1.650804 32.885185 -1.397022 0.000000 0.000000 0.000000 -0.363449 -22.148514 -4.557621 -27.138514 30.517879 33.240185 33.153923 4.570944 -4.904002 -4.122841 0.793657 -14.024689 -5.272580 0.472163 -0.850337 0.000000 0.000000 0.000000 -0.168820 -23.917277 -5.088919 -6.391100 -7.142094 1.051499 16.868493 7.226981 9.536288 -5.520488 7.232965 6.386719 -4.364207 0.333942 -1.882451 0.000000 0.000000 0.000000 -0.679911 -26.647590 -5.034887 8.756256 -2.670615 0.860496 3.039626 -1.614996 1.688438 0.179766 1.404455 -0.679885 0.000000 0.000000 0.000000 3.960623 -2.214278 1.584894 -1.102011 -3.218388 -2.253993 -5.321082 26.766308 -9.472590 0.000000 0.000000 0.000000 3.147099 -1.741024 0.804769 7.921608 5.612874 8.452137 4.789729 4.311035 4.296554 23.893060 -45.475017 -57.075216 -29.063418 -57.727523 -22.157414 0.000000 0.000000 0.000000 4.228767 -1.673563 1.706869 -0.028237 0.813483 1.839769 0.752397 3.274254 -2.735931 -1.947783 17.994919 72.268080 0.527567 30.161702 2.184122 0.000000 0.000000 0.000000 
1.713013 32.780521 -1.237246 0.000000 0.000000 0.000000 -0.357007 -26.584083 -5.663891 -31.163872 35.363240 38.803712 34.842912 3.428616 -5.566079 -6.496410 3.099294 -14.041801 -5.588858 0.306202 -0.673029 0.000000 0.000000 0.000000 -0.058746 -27.756458 -6.354161 -7.358602 -8.825366 -0.887950 18.030960 6.919701 8.798181 -6.073854 7.447243 7.277365 -4.480643 0.708708 -2.220450 0.000000 0.000000 0.000000 -0.227548 -30.233368 -5.961234 9.562744 -3.135095 1.039671 3.816463 -2.027811 1.145024 0.427796 1.809597 -0.774665 0.000000 0.000000 0.000000 4.668845 -2.515798 1.166938 -2.090048 -1.899052 -2.127565 -8.231349 29.215513 -9.254979 0.000000 0.000000 0.000000 3.949171 -1.909669 0.193880 9.417408 6.121785 11.166898 3.341587 1.848977 4.469976 38.638787 -45.335818 -52.507598 -66.884183 -70.859299 -60.149364 0.000000 0.000000 0.000000 5.443819 -1.930617 1.127248 0.622211 1.409490 1.727022 1.336344 1.105880 -3.548196 -3.937224 18.596151 70.285064 1.255101 38.258584 2.249711 0.000000 0.000000 0.000000 
1.782822 32.638287 -1.229500 0.000000 0.000000 0.000000 -0.356240 -31.374351 -6.169769 -33.878237 40.083129 42.984453 35.964518 2.918869 -5.714740 -11.393917 6.244021 -12.452866 -3.569919 0.145149 -0.769087 0.000000 0.000000 0.000000 0.111197 -31.751043 -6.809947 -8.275013 -10.159128 -4.277004 21.077151 5.902355 7.254959 -8.347340 5.693493 6.424796 -4.403310 0.642519 -0.986572 0.000000 0.000000 0.000000 0.231173 -33.851838 -6.473471 9.794587 -3.440172 0.988238 4.480286 -2.399337 0.735279 1.173649 2.609583 -0.576985 0.000000 0.000000 0.000000 5.030025 -2.775539 0.855220 -2.679569 -0.840785 -1.697134 -10.023687 31.139133 -8.879628 0.000000 0.000000 0.000000 4.505621 -2.014161 -0.163063 10.817105 7.303157 13.705093 1.857298 -1.670278 4.226656 50.876536 -44.531064 -51.188091 -118.912460 -68.376040 -112.390134 0.000000 0.000000 0.000000 6.383333 -2.107674 0.713425 1.263015 2.058917 1.807776 2.211284 -0.721793 -4.400214 -4.301024 17.239587 67.812331 1.227753 49.145561 2.711626 0.000000 0.000000 0.000000 
